<svg width="23" height="23" viewBox="0 0 23 23" fill="none" xmlns="http://www.w3.org/2000/svg">
<path fill-rule="evenodd" clip-rule="evenodd" d="M10.7812 0C9.98737 0 9.34375 0.643591 9.34375 1.4375L9.17112 2.64549C9.01664 3.72707 7.75969 4.24773 6.88563 3.59219L5.90944 2.86004C5.34806 2.29866 4.43789 2.29866 3.87651 2.86004L2.86004 3.87651C2.29866 4.43789 2.29866 5.34806 2.86004 5.90944L3.59218 6.88563C4.24773 7.75969 3.72707 9.01664 2.64547 9.17112L1.4375 9.34375C0.643591 9.34375 0 9.98737 0 10.7812V12.2188C0 13.0126 0.643591 13.6562 1.4375 13.6562L2.64549 13.8289C3.72709 13.9834 4.24774 15.2403 3.59219 16.1143L2.86004 17.0905C2.29866 17.652 2.29866 18.5622 2.86004 19.1235L3.87651 20.1399C4.43789 20.7014 5.34806 20.7014 5.90944 20.1399L6.88563 19.4078C7.75969 18.7523 9.01664 19.273 9.17112 20.3545L9.34375 21.5625C9.34375 22.3564 9.98737 23 10.7812 23H12.2188C13.0126 23 13.6562 22.3564 13.6562 21.5625L13.8289 20.3545C13.9834 19.273 15.2403 18.7523 16.1143 19.4078L17.0905 20.1399C17.652 20.7014 18.5622 20.7014 19.1235 20.1399L20.1399 19.1235C20.7013 18.5622 20.7013 17.652 20.1399 17.0905L19.4078 16.1143C18.7523 15.2403 19.273 13.9834 20.3545 13.8289L21.5625 13.6562C22.3564 13.6562 23 13.0126 23 12.2188V10.7812C23 9.98737 22.3564 9.34375 21.5625 9.34375L20.3545 9.17112C19.273 9.01664 18.7523 7.75969 19.4078 6.88563L20.1399 5.90944C20.7013 5.34806 20.7013 4.43789 20.1399 3.87651L19.1235 2.86004C18.5622 2.29866 17.652 2.29866 17.0905 2.86004L16.1143 3.59219C15.2403 4.24773 13.9834 3.72707 13.8289 2.64549L13.6562 1.4375C13.6562 0.643591 13.0126 0 12.2188 0H10.7812ZM11.5 14.375C13.0878 14.375 14.375 13.0878 14.375 11.5C14.375 9.91223 13.0878 8.625 11.5 8.625C9.91223 8.625 8.625 9.91223 8.625 11.5C8.625 13.0878 9.91223 14.375 11.5 14.375Z" fill="white"/>
</svg>
