<svg width="30" height="31" viewBox="0 0 30 31" fill="none" xmlns="http://www.w3.org/2000/svg">
<path d="M17.3162 15.1464L25.6202 3.3115C25.8683 2.95728 25.9655 2.51901 25.8905 2.09309C25.8155 1.66718 25.5743 1.28851 25.2201 1.04039C24.8659 0.792273 24.4276 0.695029 24.0017 0.770053C23.5758 0.845077 23.1971 1.08622 22.949 1.44044L14.6638 13.2885L2.82889 4.98454C2.47467 4.73642 2.03639 4.63918 1.61048 4.7142C1.18456 4.78922 0.805894 5.03037 0.557776 5.38459C0.309658 5.73881 0.212415 6.17708 0.287438 6.603C0.362462 7.02891 0.603607 7.40758 0.957825 7.6557L12.8059 15.9409L4.50192 27.7758C4.37821 27.9509 4.29038 28.1488 4.24351 28.358C4.19665 28.5672 4.19166 28.7836 4.22886 28.9947C4.26605 29.2058 4.34468 29.4075 4.4602 29.5881C4.57573 29.7687 4.72588 29.9246 4.90197 30.0469C5.07706 30.1706 5.27491 30.2585 5.48411 30.3053C5.69331 30.3522 5.90972 30.3572 6.12086 30.32C6.332 30.2828 6.53368 30.2042 6.71428 30.0886C6.89487 29.9731 7.05081 29.823 7.17308 29.6469L15.4583 17.7988L27.2932 26.1028C27.4683 26.2265 27.6661 26.3143 27.8753 26.3612C28.0845 26.4081 28.3009 26.413 28.5121 26.3758C28.7232 26.3387 28.9249 26.26 29.1055 26.1445C29.2861 26.029 29.442 25.8788 29.5643 25.7027C29.688 25.5276 29.7758 25.3298 29.8227 25.1206C29.8696 24.9114 29.8746 24.695 29.8374 24.4838C29.8002 24.2727 29.7216 24.071 29.606 23.8904C29.4905 23.7098 29.3404 23.5539 29.1643 23.4316L17.3162 15.1464Z" fill="white"/>
</svg>
