<svg xmlns="http://www.w3.org/2000/svg" width="32" height="32" enable-background="new 0 0 32 32" viewBox="0 0 32 32"><path fill="#ffffff" d="M10.5,17.063c-1.93,0-3.5-1.57-3.5-3.5c0-0.423,0.082-0.848,0.243-1.262
					c0.051-0.132,0.157-0.236,0.29-0.286c0.132-0.05,0.28-0.042,0.407,0.024c1.607,0.838,3.42,0.638,4.804-0.436
					c0.112-0.087,0.256-0.12,0.396-0.097c0.14,0.025,0.262,0.109,0.336,0.23C13.819,12.296,14,12.928,14,13.563
					C14,15.493,12.43,17.063,10.5,17.063z M8.032,13.181C8.011,13.309,8,13.437,8,13.563c0,1.379,1.122,2.5,2.5,2.5
					s2.5-1.121,2.5-2.5c0-0.277-0.049-0.555-0.145-0.82C11.413,13.638,9.641,13.818,8.032,13.181z"/><circle cx="10.5" cy="14.063" r="1" fill="#ffffff"/><path fill="#ffffff" d="M21.5,17.063c-1.93,0-3.5-1.57-3.5-3.5c0-0.636,0.181-1.268,0.524-1.825
					c0.074-0.121,0.196-0.205,0.336-0.23c0.138-0.023,0.283,0.01,0.396,0.097c1.384,1.073,3.195,1.273,4.804,0.436
					c0.127-0.066,0.275-0.074,0.407-0.024c0.133,0.05,0.239,0.154,0.29,0.286C24.918,12.716,25,13.141,25,13.563
					C25,15.493,23.43,17.063,21.5,17.063z M19.145,12.743C19.049,13.009,19,13.286,19,13.563c0,1.379,1.122,2.5,2.5,2.5
					s2.5-1.121,2.5-2.5c0-0.127-0.011-0.255-0.032-0.383C22.358,13.818,20.586,13.637,19.145,12.743z"/><circle cx="21.5" cy="14.063" r="1" fill="#ffffff"/><path fill="#ffffff" d="M16,30C8.28,30,2,23.72,2,16S8.28,2,16,2s14,6.28,14,14S23.72,30,16,30z M16,3C8.832,3,3,8.832,3,16
			s5.832,13,13,13s13-5.832,13-13S23.168,3,16,3z"/><path fill="#ffffff" d="M23.5 11c-.149 0-3.654-.026-4.471-2.333-.092-.261.044-.546.304-.639.261-.093.546.045.638.305C20.553 9.974 23.471 10 23.5 10c.276.001.5.225.499.501C24 10.776 23.776 11 23.5 11zM8.5 11C8.224 11 8 10.776 8 10.501 8 10.225 8.224 10.001 8.5 10c.029 0 2.948-.026 3.529-1.667.092-.26.377-.398.638-.305.26.093.396.378.304.639C12.154 10.974 8.649 11 8.5 11zM20.5 25h-9c-.276 0-.5-.224-.5-.5V24c0-2.757 2.243-5 5-5s5 2.243 5 5v.5C21 24.776 20.776 25 20.5 25zM12 24h8c0-2.206-1.794-4-4-4S12 21.794 12 24z"/></svg>